/* XPM */
static char * active_xpm[] = {
"22 22 8 1",
" 	c None",
".	c #000000",
"+	c #FFFFFF",
"@	c #363636",
"#	c #252525",
"$	c #181818",
"%	c #111111",
"&	c #060606",
"                      ",
"        ...           ",
"        .+.           ",
"        .+.......     ",
"        .+++++++.     ",
"        .......+.     ",
"              .+.     ",
" ..............+..... ",
" .++++++++++++++++++. ",
" .+................+. ",
" .+.++.++.++.++.++.+. ",
" .+.++.++.++.++.++.+. ",
" .+.............++.+. ",
" .+.++.++.++.++.++.+. ",
" .+.++.++.++.++.++.+. ",
" .+................+. ",
" .+.++++++++.+++++.+. ",
" .+.++++++++.+++++.+. ",
" .+@#$%&...........+. ",
" .++++++++++++++++++. ",
" .................... ",
"                      "};
