/* XPM */
static char *cangjie_xpm[]={
"16 16 2 1",
". c None",
"# c #3d77bd",
"................",
"................",
".......#........",
".......##.......",
"......#..#......",
".....#....#.....",
"....#......#....",
"..##.######.##..",
".....#....#.....",
".....#.#..#.....",
".....#..##......",
".....#......#...",
".....#......#...",
"......#######...",
"................",
"................"};
