/* XPM */
static char *fullwidth_inactive_xpm[]={
"16 16 24 1",
". c None",
"q c #0a4aa2",
"g c #0a4aa3",
"c c #0a5cc2",
"h c #2f86da",
"k c #2f86db",
"u c #3086d9",
"t c #3d88cf",
"p c #4789c7",
"f c #61a1db",
"r c #628dfa",
"m c #64bcfa",
"d c #66a1d7",
"# c #66bcfa",
"s c #83bff7",
"b c #a6dafb",
"v c #adbac8",
"j c #b0bac6",
"i c #b2bbc4",
"l c #b7bbc0",
"o c #c8cbce",
"a c #ccced1",
"e c #cececf",
"n c #d0cfce",
"................",
"................",
"................",
".........#a.....",
"........bcde....",
"........fghi....",
"........cgcj....",
".......fggci....",
"......fgggkl....",
".....fcggcmn....",
"...opqggcrjn....",
"....stukmvn.....",
".....nnnn.......",
"................",
"................",
"................"};
