/* XPM */
static char *fullwidth_active_xpm[]={
"16 16 46 1",
". c None",
"p c #0f77ff",
"u c #1077ff",
"h c #1277ff",
"t c #1278ff",
"A c #1378ff",
"i c #1478ff",
"v c #1578ff",
"z c #1879ff",
"o c #197aff",
"j c #1a7aff",
"g c #1b7aff",
"k c #1c7bff",
"q c #1d7bff",
"c c #2280ff",
"l c #237cff",
"J c #247cff",
"O c #2680ff",
"C c #2881ff",
"G c #297dff",
"N c #3082ff",
"y c #358fff",
"b c #388fff",
"E c #3c94fe",
"P c #3d94fe",
"w c #4094fe",
"s c #54a7fe",
"K c #55a7fe",
"M c #5897fe",
"H c #5ba8fe",
"d c #5ca8fe",
"Q c #5ea8fe",
"a c #65a9fe",
"D c #6caafe",
"f c #76b8ff",
"r c #81b9ff",
"I c #8bbaff",
"m c #8dbbff",
"L c #a6aeb3",
"R c #a8aeb2",
"B c #aeafad",
"n c #b6c4d6",
"e c #c0c6cd",
"# c #c5c6c8",
"F c #c7c7c7",
"x c #cfd0ce",
"................",
"................",
"................",
".....#abcde.....",
"....fghijklm....",
"...nkopppphqr...",
"...skjtppuvkwx..",
"...ykgzAhvokcB..",
"...CkkkkkkkkcB..",
"...DqkkkkkkkEB..",
"...FGkkkkkkkHB..",
"....IJkkkkkKLx..",
".....mMNOPQRF...",
"......xBBBBx....",
"................",
"................"};
