/* XPM */
static char * inactive_xpm[] = {
"22 22 60 1",
" 	c None",
".	c #000000",
"+	c #CBCBCB",
"@	c #CACACA",
"#	c #CDCDCD",
"$	c #D0D0D1",
"%	c #D4D4D4",
"&	c #D7D8D7",
"*	c #D6D7D6",
"=	c #D2D3D3",
"-	c #D3D3D3",
";	c #BFBFBF",
">	c #C0C1C0",
",	c #C2C2C2",
"'	c #C4C3C4",
")	c #C6C6C5",
"!	c #C8C7C7",
"~	c #C9C9C9",
"{	c #D0D0D0",
"]	c #D8D7D8",
"^	c #CECECF",
"/	c #CACBCA",
"(	c #C6C6C6",
"_	c #C1C1C1",
":	c #C3C3C4",
"<	c #C8C8C7",
"[	c #D7D7D7",
"}	c #D7D7D6",
"|	c #CECECE",
"1	c #CBCACB",
"2	c #C4C4C4",
"3	c #D8D7D7",
"4	c #D7D6D6",
"5	c #CFCFCE",
"6	c #CBCBCA",
"7	c #CFCFCF",
"8	c #C7C7C7",
"9	c #CDCCCC",
"0	c #D0D1D0",
"a	c #D7D7D8",
"b	c #D6D6D6",
"c	c #CECFCF",
"d	c #C2C1C1",
"e	c #C3C2C2",
"f	c #CECFCE",
"g	c #C6C5C5",
"h	c #D0D1D1",
"i	c #D3D2D2",
"j	c #C5C6C6",
"k	c #D1D0D0",
"l	c #CFCECF",
"m	c #CBCACA",
"n	c #C0C0C1",
"o	c #C3C4C4",
"p	c #C5C6C5",
"q	c #C8C7C8",
"r	c #C9C9C8",
"s	c #D7D6D7",
"t	c #D2D2D3",
"u	c #CACBCB",
"                      ",
"        ...           ",
"        .+.           ",
"        .@.......     ",
"        .+#$%&*=.     ",
"        .......-.     ",
"              .-.     ",
" ..............=..... ",
" .;>,')!~+#{%]*=^/(_. ",
" .;................_. ",
" .;.,:.<~.#{.[}.|1._. ",
" .;.,2.!~.#{.34.56._. ",
" .;.............76._. ",
" .;.,2.8~.90.ab.c@.d. ",
" .;.e2.8~.#{.[*.f+._. ",
" .;................_. ",
" .;.,2g8~+#h.&bi5+._. ",
" .;.,'j8~+#k.[}-lm._. ",
" .;................_. ",
" .;n,opqr1#k%[st7u(_. ",
" .................... ",
"                      "};
