/* XPM */
static char *logo_xpm[]={
"16 16 129 2",
"Qt c None",
".x c #060606",
".M c #090909",
".r c #0e0e0e",
".U c #131313",
".l c #161616",
".7 c #171717",
".E c #1d1d1d",
".V c #262626",
".j c #3e3e3e",
".P c #3f3f3f",
".i c #404040",
".3 c #404141",
"#d c #424242",
"#n c #4d4532",
".8 c #525252",
".0 c #575757",
".h c #585858",
".k c #5b5b5b",
"#e c #5d5a55",
".f c #5f5f5f",
".e c #666666",
".F c #676767",
".n c #6e6e6e",
".L c #777777",
"## c #7c6130",
"#v c #7c6f4f",
".g c #7e7e7e",
".A c #817f7b",
".6 c #818181",
".X c #868686",
"#M c #888888",
"#c c #898070",
"#Y c #89826f",
".q c #89857f",
"#Z c #898989",
"#0 c #8c8c8c",
".o c #928c6e",
".t c #938b65",
".1 c #939393",
".d c #989898",
".p c #9b9276",
".W c #9b9b9b",
"#N c #a58e31",
".H c #a5a5a5",
".G c #aaaaaa",
"#m c #ac945f",
".b c #aeaeae",
"#i c #b0945b",
"#L c #b1b1b1",
".N c #b9b9b9",
"#1 c #bdad40",
"#K c #bdb9b0",
".c c #bebebe",
".a c #c1c1c1",
"#o c #c3a975",
"#R c #c5ad5a",
"#j c #c6c6c6",
".y c #c7c7c7",
".w c #ca942c",
"#4 c #cbc2a4",
"#9 c #cbc5a5",
"#y c #ccb480",
".4 c #cdcdcd",
"#7 c #cecab7",
"#a c #d2cec9",
"#6 c #d4d0ba",
".T c #d4d4d4",
"#x c #d4d5d5",
"#l c #d6bd91",
"#U c #d7c64e",
"#b c #dcd7d0",
"#T c #ddd1a5",
"#k c #dddddd",
"a. c #dedbd4",
"#w c #dfdfe0",
".s c #e0e0e0",
"#V c #e1c91f",
"#3 c #e5cc1a",
"#C c #e5cf90",
".5 c #e5e5e5",
".D c #e8dbc6",
"#. c #ebe8e3",
"#r c #ecc763",
".m c #ececec",
"#g c #edcb88",
"#F c #edcd36",
".O c #ededed",
"#8 c #efede7",
".Q c #efefef",
"#J c #f1cc24",
"#X c #f2dd07",
"#5 c #f2f1ef",
".Z c #f2f2f2",
"#Q c #f4cd1d",
"#f c #f4e5c9",
".C c #f6bc51",
"#S c #f6f6f5",
".2 c #f6f6f6",
"#u c #f7d363",
".Y c #f7f7f7",
".u c #f8e954",
"#p c #f8f7f6",
".S c #f8f8f8",
".B c #fad56e",
".# c #fafafa",
"#B c #fcdb7c",
"#D c #fcfcfb",
".K c #fcfcfc",
"#W c #fde802",
"#E c #fdfcfb",
"#q c #fdfcfc",
".9 c #fdfdfd",
".v c #fed962",
"#A c #fedf85",
".J c #fefdfd",
".z c #fefefe",
"#I c #ffd70e",
"#H c #ffd813",
"#P c #ffd920",
"#G c #ffda1f",
"#O c #ffdc32",
"#t c #ffdd74",
"#s c #ffde75",
"#z c #ffe081",
"#h c #ffe3a6",
"#2 c #ffec01",
".I c #fffefe",
".R c #ffffff",
"QtQtQtQtQt.#.a.b.c.#QtQtQtQtQtQt",
"QtQtQtQtQt.d.e.e.f.gQtQtQtQtQtQt",
"QtQtQtQtQt.h.i.j.k.l.mQtQtQtQtQt",
"QtQtQtQtQt.n.o.p.q.r.sQtQtQtQtQt",
"QtQtQtQtQt.t.u.v.w.x.yQtQtQtQtQt",
"QtQtQtQt.z.A.B.C.D.E.F.zQtQtQtQt",
"QtQtQtQt.G.H.I.J.K.L.M.NQtQtQtQt",
"QtQtQt.O.P.Q.R.K.S.T.U.V.mQtQtQt",
"QtQtQt.W.X.R.K.Y.Z.m.0.r.1QtQtQt",
"QtQt.2.3.4.K.Y.Z.m.5.6.7.8.9QtQt",
"QtQt#.###a.S.Z.m.5#b#c#d#e.KQtQt",
".I#f#g#h#i#j.m.5#k#l#m#n#o#pQtQt",
"#q#r#s#t#u#v#w#k#x#y#z#A#B#C#DQt",
"#E#F#G#H#I#J#K#L#M#N#O#P#Q#R#SQt",
".z#T#U#V#W#X#Y#Z#0#1#2#3#4.2QtQt",
"QtQt.9#5#6#7.#.z.z#8#9a..zQtQtQt"};
