/* XPM */
static char *next_xpm[]={
"6 12 2 1",
"# c None",
". c #3d77bd",
".#####",
"..####",
"...###",
"....##",
".....#",
"......",
"......",
".....#",
"....##",
"...###",
"..####",
".#####"};
