/* XPM */
static char *punc_active_xpm[]={
"16 16 4 1",
". c None",
"# c #1691ba",
"a c #b4b3b2",
"b c #cfd0ce",
"................",
"................",
"................",
"................",
"...###..........",
"..a###b.........",
"...###a.........",
"....a#a.###b....",
"....#ab#aaa#b...",
"...#ab.#a..#a...",
"...ab..#a..#a...",
".......b###ab...",
"........baab....",
"................",
"................",
"................"};
