/* XPM */
static char *punc_inactive_xpm[]={
"16 16 4 1",
". c None",
"# c #438aff",
"b c #8e8d8f",
"a c #d4d4d2",
"................",
"................",
"................",
"................",
"................",
"................",
"....##...###....",
"....##a..###a...",
".....#b..###b...",
"....#a....abb...",
"................",
"................",
"................",
"................",
"................",
"................"};
