/* XPM */
static char *remind_inactive_xpm[]={
"16 16 3 1",
". c None",
"a c #000000",
"# c #000002",
"................",
"................",
"..#aaaaaa...a...",
"...a..a..a..a...",
"...a..a..a.a....",
"...aaaa.aaaaaa..",
"...a..a...a.....",
"...a..a...a.....",
"...aaaaaaaaaaa..",
"...a..a...a.....",
"...a..aa.a.a....",
"..aaaaa..a.a....",
"......a.a...a...",
"......aa.....a..",
"................",
"................"};
