/* XPM */
static char *vk_active_xpm[]={
"16 16 49 1",
". c None",
"# c #3d77bd",
"J c #4680c6",
"L c #4781c7",
"w c #508ad0",
"p c #528cd2",
"k c #5690d6",
"H c #5f99df",
"B c #639de3",
"U c #659fe5",
"E c #66a0e6",
"I c #67a1e7",
"M c #6ca6ec",
"g c #6fa9ef",
"G c #76b0f6",
"K c #77b1f7",
"d c #79b3f9",
"v c #7ab4fa",
"u c #7eb8fe",
"r c #7fb9ff",
"m c #83bdff",
"i c #87c1ff",
"x c #88c2ff",
"R c #8cc6ff",
"n c #8fc9ff",
"O c #96d0ff",
"s c #9ad4ff",
"c c #9cd6ff",
"T c #a2dcff",
"C c #a4deff",
"f c #a6e0ff",
"t c #a8e2ff",
"z c #abe5ff",
"o c #c0faff",
"j c #c4feff",
"A c #cdffff",
"S c #ceffff",
"P c #d7ffff",
"D c #d8ffff",
"h c #dcffff",
"l c #e0ffff",
"q c #e5ffff",
"e c #e6ffff",
"Q c #e8ffff",
"N c #eaffff",
"F c #eeffff",
"b c #f0ffff",
"y c #f2ffff",
"a c #ffffff",
"................",
"................",
"................",
"................",
".##############.",
".#abcadaefagah#.",
".#hiijklmnopqr#.",
".#stuvtwtvutwx#.",
".#ayzAaBaCDaEF#.",
".#GHpBIJKwEELM#.",
".#aNOaaaaaaMaP#.",
".#QRRSTTTTU#bm#.",
".##############.",
"................",
"................",
"................"};
