/* XPM */
static char *vk_inactive_xpm[]={
"16 16 60 1",
". c None",
"# c #000000",
"Q c #090909",
"S c #0a0a0a",
"A c #131313",
"t c #151515",
"o c #191919",
"O c #222222",
"G c #262626",
"5 c #282828",
"L c #292929",
"P c #2a2a2a",
"T c #2f2f2f",
"j c #323232",
"N c #393939",
"R c #3a3a3a",
"e c #3c3c3c",
"z c #3d3d3d",
"y c #414141",
"v c #424242",
"q c #464646",
"m c #4a4a4a",
"B c #4b4b4b",
"2 c #4f4f4f",
"r c #525252",
"W c #595959",
"w c #5d5d5d",
"c c #5f5f5f",
"4 c #656565",
"I c #676767",
"h c #696969",
"x c #6b6b6b",
"D c #6e6e6e",
"s c #838383",
"n c #878787",
"E c #909090",
"3 c #919191",
"0 c #9a9a9a",
"J c #9b9b9b",
"l c #9f9f9f",
"p c #a3a3a3",
"u c #a8a8a8",
"g c #a9a9a9",
"1 c #ababab",
"V c #adadad",
"M c #b1b1b1",
"b c #b3b3b3",
"C c #b5b5b5",
"K c #c5c5c5",
"U c #c6c6c6",
"F c #c9c9c9",
"a c #d1d1d1",
"Z c #d9d9d9",
"f c #dbdbdb",
"Y c #dddddd",
"X c #e0e0e0",
"k c #e5e5e5",
"i c #e9e9e9",
"d c #eaeaea",
"H c #ececec",
"................",
"................",
"................",
"................",
".##############.",
".#abcdefghijkl#.",
".#lmmnopqrstuv#.",
".#wxyzxAxzyxAB#.",
".#fCDEFGHIJKLM#.",
".#NOtGPQRALLST#.",
".#UVWXYYYYZTZ0#.",
".#122344445#bq#.",
".##############.",
"................",
"................",
"................"};
