/* XPM */
static char *ziranma_xpm[]={
"16 16 3 1",
". c None",
"# c #000000",
"a c #3d77bd",
"................",
"................",
"......#.........",
".....a..........",
"...aaaaaaaa.....",
"...a......a.....",
"...a......a.....",
"...aaaaaaaa.....",
"...a......a.....",
"...a......a.....",
"...aaaaaaaa.....",
"...a......a.....",
"...a......a.....",
"...aaaaaaaa.....",
"................",
"................"};
